<?xml version="1.0" encoding="UTF-8" standalone="no"?>
<!-- Created with Inkscape (http://www.inkscape.org/) -->

<svg
   width="8.1368713in"
   height="8.136837in"
   viewBox="0 0 206.67653 206.67566"
   version="1.1"
   id="svg5"
   inkscape:version="1.1.2 (0a00cf5339, 2022-02-04)"
   sodipodi:docname="tripbud_logo.svg"
   xmlns:inkscape="http://www.inkscape.org/namespaces/inkscape"
   xmlns:sodipodi="http://sodipodi.sourceforge.net/DTD/sodipodi-0.dtd"
   xmlns:xlink="http://www.w3.org/1999/xlink"
   xmlns="http://www.w3.org/2000/svg"
   xmlns:svg="http://www.w3.org/2000/svg">
  <sodipodi:namedview
     id="namedview7"
     pagecolor="#ffffff"
     bordercolor="#999999"
     borderopacity="1"
     inkscape:pageshadow="0"
     inkscape:pageopacity="0"
     inkscape:pagecheckerboard="0"
     inkscape:document-units="mm"
     showgrid="false"
     inkscape:zoom="0.64052329"
     inkscape:cx="245.8927"
     inkscape:cy="540.96394"
     inkscape:window-width="1856"
     inkscape:window-height="1136"
     inkscape:window-x="0"
     inkscape:window-y="0"
     inkscape:window-maximized="1"
     inkscape:current-layer="layer1"
     units="in"
     fit-margin-top="0"
     fit-margin-left="0"
     fit-margin-right="0"
     fit-margin-bottom="0" />
  <defs
     id="defs2">
    <linearGradient
       inkscape:collect="always"
       id="linearGradient18407">
      <stop
         style="stop-color:#00ffff;stop-opacity:1"
         offset="0"
         id="stop18403" />
      <stop
         style="stop-color:#4cff7f;stop-opacity:1"
         offset="1"
         id="stop18405" />
    </linearGradient>
    <linearGradient
       inkscape:collect="always"
       xlink:href="#linearGradient18407"
       id="linearGradient18409"
       x1="47.520828"
       y1="166.83257"
       x2="133.83282"
       y2="86.21109"
       gradientUnits="userSpaceOnUse" />
  </defs>
  <g
     inkscape:label="Layer 1"
     inkscape:groupmode="layer"
     id="layer1"
     transform="translate(-2.0032639,-36.91133)">
    <g
       id="g16730"
       style="stroke:#00ff14;stroke-opacity:1"
       transform="matrix(1.6925744,0,0,1.6925744,-69.831706,-56.719489)"
       inkscape:export-filename="/home/voy0/work/mini/trip_bud/assets/tripbud_logo.png"
       inkscape:export-xdpi="96"
       inkscape:export-ydpi="96">
      <g
         id="path4856" />
      <g
         id="path5383">
        <path
           id="path17633"
           style="color:#000000;fill:url(#linearGradient18409);fill-opacity:1;stroke:none;stroke-width:0;stroke-miterlimit:4;stroke-dasharray:none;stroke-opacity:1"
           d="m 81.297515,152.7 c 11.351021,7.66974 24.391145,8.68634 31.574295,7.8533 15.49924,-1.79746 23.88345,-8.07402 28.55066,-18.17508 7.88031,-17.05503 -11.65725,-30.14351 -33.30072,-27.48529 -3.92766,0.48239 -8.852777,1.26832 -10.971009,-1.20395 -2.361635,-2.75638 0.391755,-10.0508 0.391755,-10.0508 -5.676142,4.01352 -9.815925,15.43087 -9.815925,15.43087 0,0 2.869192,-0.17295 6.794063,-0.2409 6.652356,-0.11518 13.765606,0.5329 17.697056,1.36555 4.24664,0.8994 6.92644,1.89989 11.17233,6.10288 4.9371,4.8872 2.40016,13.92052 -9.62934,15.16243 -14.412553,0.70771 -24.770854,-2.30989 -28.137194,-15.23403 0,0 -1.891049,7.72201 -2.908037,13.73724 C 81.641517,146.3143 81.297515,152.7 81.297515,152.7 Z M 103.49592,55.318584 c -33.65959,-3e-6 -61.054672,27.395074 -61.054672,61.054666 -5e-6,33.65959 27.39508,61.05261 61.054672,61.05261 33.65959,0 61.05312,-27.39302 61.05312,-61.05261 0,-33.659586 -27.39353,-61.054663 -61.05312,-61.054666 z m 0,9.999906 c 28.2552,2e-6 51.0527,22.799569 51.0527,51.05476 0,28.25519 -22.7975,51.0527 -51.0527,51.0527 -28.255197,0 -51.054769,-22.7975 -51.054766,-51.0527 0,-12.0721 4.164589,-23.146423 11.135754,-31.874019 l 11.183297,9.502261 c 0,0 -13.904616,30.703888 -11.873696,37.423038 2.030918,6.71915 14.288535,18.38802 14.288535,18.38802 0,0 2.459564,-27.76185 11.100096,-42.72503 8.640535,-14.963191 26.01968,-13.748867 30.30306,-12.712407 6.77371,1.639049 6.09881,7.693817 1.98489,12.425597 -3.09253,3.55698 -4.98988,5.30703 -4.98988,5.30703 0,0 11.24934,1.79041 14.98524,3.68817 6.98136,3.54638 -0.98216,-7.18193 3.29613,-15.49857 C 142.27627,83.926225 130.75087,82.136838 117.62735,83.677059 103.1776,85.37293 88.656516,87.027698 75.625268,73.561914 83.63266,68.347498 93.20115,65.31849 103.49592,65.31849 Z m -5.793259,37.91152 -0.359151,0.25167 c -2.871936,2.03071 -5.206305,5.51561 -7.029216,9.60805 -1.483105,3.32957 -2.712495,5.93349 -2.712498,5.93349 l -0.06873,0.18965 0.201539,-0.0119 c 0,0 2.866633,-0.17188 6.788732,-0.23978 6.642133,-0.11501 13.752693,0.53233 17.666103,1.36116 4.23822,0.89761 6.87376,1.87756 11.10734,6.06836 2.43152,2.40695 3.01963,5.81921 1.52342,8.79481 -1.49565,2.97449 -5.08742,5.52182 -11.06651,6.14071 -7.19552,0.35333 -13.36821,-0.22602 -18.14825,-2.49235 -4.780039,-2.26633 -8.178202,-6.21018 -9.853662,-12.64264 l -0.257866,0.002 c 0,0 -1.889453,7.723 -2.907832,13.74645 -1.075586,6.36187 -1.420069,12.75375 -1.420069,12.75375 l -0.0041,0.0739 0.06098,0.0434 c 11.38546,7.69301 24.450119,8.71154 31.663699,7.87497 15.52881,-1.80089 23.97289,-8.11524 28.65665,-18.25211 3.96302,-8.57699 1.02077,-16.19601 -5.6193,-21.29483 -6.64008,-5.09882 -16.96587,-7.70977 -27.81846,-6.37687 -1.96582,0.24144 -4.17395,0.55772 -6.14432,0.50591 -1.970378,-0.0518 -3.687627,-0.47209 -4.709274,-1.66449 -1.130675,-1.31967 -1.087892,-3.65123 -0.734322,-5.65806 0.353571,-2.00682 1.024932,-4.30708 1.024932,-4.30708 z m -0.568112,1.44835 c -0.138071,0.37272 -0.56814,1.46045 -0.878499,3.22203 -0.358796,2.03649 -0.436174,4.43838 0.794782,5.87509 1.096581,1.27986 2.900439,1.70327 4.904098,1.75596 2.00365,0.0527 4.22176,-0.26703 6.1836,-0.50797 10.79087,-1.32533 21.05571,1.27954 27.62518,6.32416 6.56948,5.04461 9.45649,12.49641 5.5392,20.97443 -4.65065,10.06523 -12.97565,16.30565 -28.44529,18.09967 -7.13927,0.82796 -20.120208,-0.18557 -31.421856,-7.79281 0.0067,-0.12332 0.347975,-6.36462 1.409734,-12.6447 0.982494,-5.8112 2.6943,-12.80365 2.810682,-13.28085 1.735066,6.20754 5.114285,10.1321 9.836092,12.37082 4.843818,2.29657 11.058348,2.87206 18.275368,2.51768 h 0.004 l 0.002,-0.002 c 6.04639,-0.62422 9.73819,-3.21207 11.28354,-6.2854 1.54536,-3.07333 0.9315,-6.62103 -1.57406,-9.10126 -4.2582,-4.21518 -6.98354,-5.23745 -11.23859,-6.13864 -3.94948,-0.83646 -11.06399,-1.48477 -17.726567,-1.36942 -3.802391,0.0658 -6.406486,0.22419 -6.582026,0.23461 0.06023,-0.16205 0.963678,-2.61628 2.613276,-5.71697 1.629063,-3.06209 3.936203,-6.49917 6.585646,-8.53436 z"
           sodipodi:nodetypes="cssssccsssccscsssssssssccscssscssscsccscccsssscsccscccssssssscccssscssscscscccsssscscc" />
      </g>
    </g>
  </g>
</svg>
